<svg width="37" height="37" viewBox="0 0 37 37" fill="none" xmlns="http://www.w3.org/2000/svg">
<path d="M33.3 0H3.7C2.7187 0 1.77759 0.38982 1.0837 1.0837C0.38982 1.77759 0 2.7187 0 3.7V33.3C0 34.2813 0.38982 35.2224 1.0837 35.9163C1.77759 36.6102 2.7187 37 3.7 37H33.3C34.2813 37 35.2224 36.6102 35.9163 35.9163C36.6102 35.2224 37 34.2813 37 33.3V3.7C37 2.7187 36.6102 1.77759 35.9163 1.0837C35.2224 0.38982 34.2813 0 33.3 0ZM32.56 32.56H4.44V4.44H32.56V32.56ZM11.0094 22.8493L15.355 18.5L11.0094 14.1506C10.8028 13.9441 10.639 13.699 10.5273 13.4292C10.4155 13.1594 10.358 12.8702 10.358 12.5781C10.358 11.9883 10.5923 11.4227 11.0094 11.0056C11.4264 10.5886 11.992 10.3543 12.5819 10.3543C13.1717 10.3543 13.7373 10.5886 14.1544 11.0056L18.5 15.355L22.8493 11.0038C23.2664 10.5867 23.832 10.3524 24.4218 10.3524C25.0117 10.3524 25.5773 10.5867 25.9943 11.0038C26.4114 11.4209 26.6457 11.9865 26.6457 12.5763C26.6457 13.1661 26.4114 13.7317 25.9943 14.1488L21.645 18.5L25.9962 22.8493C26.4133 23.2664 26.6476 23.832 26.6476 24.4218C26.6476 25.0117 26.4133 25.5773 25.9962 25.9943C25.5791 26.4114 25.0135 26.6457 24.4237 26.6457C23.8339 26.6457 23.2683 26.4114 22.8512 25.9943L18.5 21.645L14.1506 25.9962C13.7336 26.4133 13.168 26.6476 12.5781 26.6476C11.9883 26.6476 11.4227 26.4133 11.0056 25.9962C10.5886 25.5791 10.3543 25.0135 10.3543 24.4237C10.3543 23.8339 10.5886 23.2683 11.0056 22.8512L11.0094 22.8493Z" fill="white"/>
</svg>
