<svg width="28" height="28" viewBox="0 0 28 28" fill="none" xmlns="http://www.w3.org/2000/svg">
<path d="M6 7C5.99961 6.73717 6.10314 6.48483 6.288 6.298L6.298 6.288C6.48483 6.10314 6.73717 5.99961 7 6H11C11.2652 6 11.5196 6.10536 11.7071 6.29289C11.8946 6.48043 12 6.73478 12 7C12 7.26522 11.8946 7.51957 11.7071 7.70711C11.5196 7.89464 11.2652 8 11 8H9.414L11.708 10.292C11.8958 10.4798 12.0013 10.7344 12.0013 11C12.0013 11.2656 11.8958 11.5202 11.708 11.708C11.5202 11.8958 11.2656 12.0013 11 12.0013C10.7344 12.0013 10.4798 11.8958 10.292 11.708L8 9.414V11C8 11.2652 7.89464 11.5196 7.70711 11.7071C7.51957 11.8946 7.26522 12 7 12C6.73478 12 6.48043 11.8946 6.29289 11.7071C6.10536 11.5196 6 11.2652 6 11V7ZM6.076 21.382C6.02582 21.2609 6 21.1311 6 21V17C6 16.7348 6.10536 16.4804 6.29289 16.2929C6.48043 16.1054 6.73478 16 7 16C7.26522 16 7.51957 16.1054 7.70711 16.2929C7.89464 16.4804 8 16.7348 8 17V18.586L10.292 16.292C10.385 16.199 10.4954 16.1253 10.6168 16.075C10.7383 16.0246 10.8685 15.9987 11 15.9987C11.1315 15.9987 11.2617 16.0246 11.3832 16.075C11.5046 16.1253 11.615 16.199 11.708 16.292C11.801 16.385 11.8747 16.4954 11.925 16.6168C11.9754 16.7383 12.0013 16.8685 12.0013 17C12.0013 17.1315 11.9754 17.2617 11.925 17.3832C11.8747 17.5046 11.801 17.615 11.708 17.708L9.414 20H11C11.2652 20 11.5196 20.1054 11.7071 20.2929C11.8946 20.4804 12 20.7348 12 21C12 21.2652 11.8946 21.5196 11.7071 21.7071C11.5196 21.8946 11.2652 22 11 22H6.994C6.79674 21.9994 6.60407 21.9404 6.44033 21.8304C6.27658 21.7205 6.15111 21.5644 6.076 21.382ZM21.382 6.076C21.498 6.124 21.608 6.196 21.702 6.288L21.712 6.298C21.8965 6.48508 22 6.73725 22 7V11C22 11.2652 21.8946 11.5196 21.7071 11.7071C21.5196 11.8946 21.2652 12 21 12C20.7348 12 20.4804 11.8946 20.2929 11.7071C20.1054 11.5196 20 11.2652 20 11V9.414L17.708 11.708C17.5202 11.8958 17.2656 12.0013 17 12.0013C16.7344 12.0013 16.4798 11.8958 16.292 11.708C16.1042 11.5202 15.9987 11.2656 15.9987 11C15.9987 10.7344 16.1042 10.4798 16.292 10.292L18.586 8H17C16.7348 8 16.4804 7.89464 16.2929 7.70711C16.1054 7.51957 16 7.26522 16 7C16 6.73478 16.1054 6.48043 16.2929 6.29289C16.4804 6.10536 16.7348 6 17 6H21C21.1311 6.00005 21.2609 6.02587 21.382 6.076ZM21.702 21.712C21.515 21.8967 21.2628 22.0002 21 22H17C16.7348 22 16.4804 21.8946 16.2929 21.7071C16.1054 21.5196 16 21.2652 16 21C16 20.7348 16.1054 20.4804 16.2929 20.2929C16.4804 20.1054 16.7348 20 17 20H18.586L16.292 17.708C16.199 17.615 16.1253 17.5046 16.075 17.3832C16.0246 17.2617 15.9987 17.1315 15.9987 17C15.9987 16.8685 16.0246 16.7383 16.075 16.6168C16.1253 16.4954 16.199 16.385 16.292 16.292C16.385 16.199 16.4954 16.1253 16.6168 16.075C16.7383 16.0246 16.8685 15.9987 17 15.9987C17.1315 15.9987 17.2617 16.0246 17.3832 16.075C17.5046 16.1253 17.615 16.199 17.708 16.292L20 18.586V17C20 16.7348 20.1054 16.4804 20.2929 16.2929C20.4804 16.1054 20.7348 16 21 16C21.2652 16 21.5196 16.1054 21.7071 16.2929C21.8946 16.4804 22 16.7348 22 17V21C22 21.2627 21.8965 21.5149 21.712 21.702L21.702 21.712ZM0 4C0 2.93913 0.421427 1.92172 1.17157 1.17157C1.92172 0.421427 2.93913 0 4 0H24C25.0609 0 26.0783 0.421427 26.8284 1.17157C27.5786 1.92172 28 2.93913 28 4V24C28 25.0609 27.5786 26.0783 26.8284 26.8284C26.0783 27.5786 25.0609 28 24 28H4C2.93913 28 1.92172 27.5786 1.17157 26.8284C0.421427 26.0783 0 25.0609 0 24V4ZM4 2C3.46957 2 2.96086 2.21071 2.58579 2.58579C2.21071 2.96086 2 3.46957 2 4V24C2 24.5304 2.21071 25.0391 2.58579 25.4142C2.96086 25.7893 3.46957 26 4 26H24C24.5304 26 25.0391 25.7893 25.4142 25.4142C25.7893 25.0391 26 24.5304 26 24V4C26 3.46957 25.7893 2.96086 25.4142 2.58579C25.0391 2.21071 24.5304 2 24 2H4Z" fill="#1C54A8"/>
</svg>
