<svg width="28" height="30" viewBox="0 0 28 30" fill="none" xmlns="http://www.w3.org/2000/svg">
<path d="M17.9 4.11111H24.4C25.6259 4.11111 26.2382 4.11111 26.6191 4.56689C27 5.02267 27 5.75533 27 7.22222V22.7778C27 24.2447 27 24.9773 26.6191 25.4331C26.2382 25.8889 25.6259 25.8889 24.4 25.8889H17.9M10.1 4.11111H3.6C2.3741 4.11111 1.7618 4.11111 1.3809 4.56689C1 5.02267 1 5.75533 1 7.22222V22.7778C1 24.2447 1 24.9773 1.3809 25.4331C1.7618 25.8889 2.3741 25.8889 3.6 25.8889H10.1M14 1V29" stroke="#1C54A8" stroke-width="2" stroke-linecap="round" stroke-linejoin="round"/>
</svg>
