<svg width="28" height="28" viewBox="0 0 28 28" fill="none" xmlns="http://www.w3.org/2000/svg">
<path d="M2.43832 12.8333L2.33332 12.8333C1.69166 12.8333 1.16666 13.3583 1.16666 14C1.16666 14.6416 1.69166 15.1666 2.33332 15.1666L2.43832 15.1666C2.71148 16.7882 3.55052 18.2606 4.80644 19.3221C6.06236 20.3837 7.65387 20.9657 9.29832 20.965L18.6667 20.965C22.1667 20.965 25.0133 18.445 25.5617 15.1666L25.6667 15.1666C26.3083 15.1666 26.8333 14.6416 26.8333 14C26.8333 13.3583 26.3083 12.8333 25.6667 12.8333L25.5617 12.8333C25.2858 11.2066 24.4411 9.73066 23.1783 8.6687C21.9155 7.60675 20.3166 7.02777 18.6667 7.03496L9.29832 7.03497C5.83332 6.99997 2.98666 9.55496 2.43832 12.8333ZM9.33332 9.3333L9.33332 10.5L6.29999 10.5C7.10499 9.79996 8.16666 9.3333 9.33332 9.3333ZM22.68 11.6666C23.0883 12.355 23.3333 13.1483 23.3333 14C23.3333 14.8516 23.0883 15.645 22.68 16.3333L18.6667 16.3333L18.6667 11.6666L22.68 11.6666ZM17.5 16.3333L10.5 16.3333L10.5 11.6666L17.5 11.6666L17.5 16.3333ZM17.5 17.5L17.5 18.6316L10.5 18.6316L10.5 17.5L17.5 17.5ZM5.31999 16.3333C4.91166 15.645 4.66666 14.8516 4.66666 14C4.66666 13.1483 4.91166 12.355 5.31999 11.6666L9.33332 11.6666L9.33332 16.3333L5.31999 16.3333ZM10.5 10.5L10.5 9.3333L17.5 9.3333L17.5 10.5L10.5 10.5ZM6.29999 17.5L9.33332 17.5L9.33332 18.6316L9.29832 18.6316C8.16666 18.6316 7.10499 18.2 6.29999 17.5ZM18.6667 18.6316L18.6667 17.5L21.7 17.5C20.895 18.2 19.8333 18.6316 18.7017 18.6316L18.6667 18.6316ZM21.7 10.5L18.6667 10.5L18.6667 9.3333C19.8333 9.3333 20.895 9.79996 21.7 10.5Z" fill="#1C54A8"/>
</svg>
