<svg width="25" height="25" viewBox="0 0 25 25" fill="none" xmlns="http://www.w3.org/2000/svg">
<path d="M17.8985 5.33888C17.6131 5.58387 17.2424 5.70515 16.8679 5.67604C16.4934 5.64693 16.1458 5.46982 15.9015 5.18366C15.6572 4.89751 15.5362 4.52575 15.5653 4.15017C15.5943 3.7746 15.7709 3.42597 16.0562 3.18098L19.3594 0.341626C19.616 0.121172 19.9427 0 20.2805 0C20.6184 0 20.9451 0.121172 21.2016 0.341626L24.5048 3.18098C24.6461 3.30228 24.7622 3.45031 24.8464 3.6166C24.9306 3.7829 24.9814 3.96421 24.9958 4.15017C25.0101 4.33614 24.9878 4.52313 24.9302 4.70045C24.8725 4.87778 24.7805 5.04197 24.6596 5.18366C24.5386 5.32535 24.391 5.44176 24.2252 5.52625C24.0593 5.61073 23.8786 5.66163 23.6931 5.67604C23.5077 5.69046 23.3212 5.6681 23.1444 5.61025C22.9676 5.5524 22.8039 5.46019 22.6626 5.33888L20.2805 3.28887L17.8985 5.3351V5.33888ZM9.89916 3.31348C9.61818 3.31354 9.34356 3.39745 9.11029 3.55453C8.87701 3.71162 8.69563 3.93477 8.58923 4.19557L0.0953912 25.0175C-0.0383963 25.3642 -0.0312099 25.7498 0.115406 26.0912C0.262022 26.4327 0.536366 26.7029 0.879485 26.8437C1.2226 26.9845 1.60711 26.9847 1.95038 26.8443C2.29365 26.7038 2.56828 26.434 2.71527 26.0926L5.44462 19.4031H14.3537L17.0831 26.0926C17.151 26.2687 17.2532 26.4293 17.3838 26.5653C17.5143 26.7012 17.6706 26.8096 17.8435 26.8843C18.0163 26.9589 18.2023 26.9982 18.3905 26.9999C18.5786 27.0017 18.7653 26.9657 18.9395 26.8942C19.1136 26.8228 19.2719 26.7172 19.4049 26.5836C19.5379 26.4501 19.643 26.2913 19.7141 26.1166C19.7852 25.9418 19.8208 25.7546 19.8189 25.5659C19.817 25.3772 19.7775 25.1907 19.7029 25.0175L11.2091 4.19557C11.1027 3.93477 10.9213 3.71162 10.688 3.55453C10.4548 3.39745 10.1802 3.31354 9.89916 3.31348ZM9.89916 8.4811L13.1948 16.5638H6.60544L9.89916 8.4811Z" fill="#1C54A8"/>
</svg>
