<svg width="49" height="49" viewBox="0 0 49 49" fill="none" xmlns="http://www.w3.org/2000/svg">
<path d="M24.5 42.875C19.9743 42.875 16.1203 41.3009 12.938 38.1526C9.75575 35.0044 8.1653 31.2021 8.16666 26.7458C8.16666 24.5 8.592 22.4243 9.4427 20.5187C10.2934 18.6132 11.4674 16.9118 12.9646 15.4146L24.5 4.08333L36.0354 15.4146C37.5326 16.9118 38.7066 18.6132 39.5573 20.5187C40.408 22.4243 40.8333 24.5 40.8333 26.7458C40.8333 31.2035 39.2429 35.0064 36.0619 38.1547C32.881 41.3029 29.027 42.8764 24.5 42.875ZM24.5 38.7917V9.8L15.8229 18.375C14.6319 19.4979 13.7384 20.7658 13.1422 22.1786C12.546 23.5915 12.2486 25.1139 12.25 26.7458C12.25 30.0465 13.441 32.8797 15.8229 35.2453C18.2049 37.6109 21.0972 38.793 24.5 38.7917Z" fill="#1C54A8"/>
</svg>
