<svg width="26" height="26" viewBox="0 0 26 26" fill="none" xmlns="http://www.w3.org/2000/svg">
<g clip-path="url(#clip0_55_5)">
<path d="M13 5.6875C12.4376 5.6875 11.8878 5.52072 11.4201 5.20824C10.9524 4.89577 10.588 4.45163 10.3727 3.93201C10.1575 3.41238 10.1012 2.8406 10.2109 2.28896C10.3206 1.73733 10.5915 1.23062 10.9892 0.832916C11.3869 0.435211 11.8936 0.16437 12.4452 0.0546431C12.9968 -0.0550836 13.5686 0.00123217 14.0883 0.216469C14.6079 0.431706 15.052 0.796196 15.3645 1.26385C15.677 1.7315 15.8438 2.28131 15.8438 2.84375C15.8429 3.59771 15.5431 4.32056 15.0099 4.8537C14.4768 5.38683 13.754 5.68669 13 5.6875Z" fill="#327DEF"/>
<path d="M21.9375 5.72813L21.9147 5.73422L21.8933 5.74082C21.8425 5.75504 21.7918 5.77028 21.741 5.78602C20.7959 6.06329 16.2094 7.35618 12.9782 7.35618C9.97548 7.35618 5.8038 6.23899 4.46927 5.85965C4.33645 5.8083 4.20082 5.76455 4.06302 5.72864C3.09818 5.47473 2.43802 6.45481 2.43802 7.35059C2.43802 8.23774 3.23528 8.66024 4.04017 8.9634V8.97762L8.87556 10.4879C9.36966 10.6773 9.50169 10.8707 9.56618 11.0383C9.77591 11.5761 9.60833 12.641 9.54892 13.0127L9.25439 15.2979L7.61974 24.245C7.61466 24.2694 7.61009 24.2943 7.60603 24.3197L7.59435 24.3841C7.47653 25.2043 8.0788 26 9.21935 26C10.2147 26 10.6539 25.3129 10.8443 24.3781C11.0348 23.4432 12.2662 16.3764 12.9772 16.3764C13.6881 16.3764 15.1526 24.3781 15.1526 24.3781C15.3431 25.3129 15.7823 26 16.7776 26C17.9212 26 18.5235 25.2007 18.4026 24.3781C18.3923 24.3089 18.3794 24.2401 18.364 24.1719L16.707 15.2989L16.413 13.0137C16.2002 11.6827 16.3714 11.243 16.4293 11.1399C16.4308 11.1375 16.4322 11.1349 16.4333 11.1323C16.4882 11.0307 16.738 10.8032 17.321 10.5843L21.8547 8.99946C21.8826 8.99204 21.91 8.98323 21.937 8.97305C22.7495 8.66836 23.562 8.24688 23.562 7.35161C23.562 6.45633 22.9024 5.47473 21.9375 5.72813Z" fill="#327DEF"/>
</g>
<defs>
<clipPath id="clip0_55_5">
<rect width="26" height="26" fill="white"/>
</clipPath>
</defs>
</svg>
