<svg width="33" height="33" viewBox="0 0 33 33" fill="none" xmlns="http://www.w3.org/2000/svg">
<path fill-rule="evenodd" clip-rule="evenodd" d="M9.3885 20.8615C9.64627 21.1193 9.79108 21.469 9.79108 21.8336C9.79108 22.1982 9.64627 22.5479 9.3885 22.8057L8.81925 23.375H24.1808L23.6115 22.8057C23.4802 22.6789 23.3754 22.5272 23.3034 22.3594C23.2313 22.1917 23.1934 22.0112 23.1918 21.8287C23.1902 21.6461 23.225 21.465 23.2941 21.2961C23.3633 21.1271 23.4654 20.9736 23.5945 20.8445C23.7236 20.7154 23.8771 20.6133 24.0461 20.5441C24.215 20.475 24.3961 20.4402 24.5787 20.4418C24.7612 20.4434 24.9417 20.4813 25.1094 20.5534C25.2772 20.6254 25.4289 20.7302 25.5558 20.8615L28.4721 23.7765C28.6 23.9042 28.7014 24.0558 28.7706 24.2228C28.8398 24.3897 28.8754 24.5686 28.8754 24.7493C28.8754 24.93 28.8398 25.1089 28.7706 25.2759C28.7014 25.4428 28.6 25.5944 28.4721 25.7221L25.5558 28.6385C25.2964 28.889 24.9491 29.0276 24.5886 29.0244C24.2281 29.0213 23.8832 28.8767 23.6282 28.6217C23.3733 28.3668 23.2287 28.0219 23.2256 27.6614C23.2224 27.3009 23.361 26.9536 23.6115 26.6942L24.1808 26.125H8.81925L9.3885 26.6942C9.51983 26.8211 9.62458 26.9728 9.69664 27.1406C9.7687 27.3083 9.80663 27.4888 9.80822 27.6713C9.80981 27.8539 9.77502 28.035 9.70588 28.2039C9.63674 28.3729 9.53465 28.5264 9.40554 28.6555C9.27644 28.7846 9.12292 28.8867 8.95394 28.9559C8.78495 29.025 8.6039 29.0598 8.42132 29.0582C8.23875 29.0566 8.05832 29.0187 7.89057 28.9466C7.72281 28.8746 7.57109 28.7698 7.44425 28.6385L4.52788 25.7235C4.40003 25.5958 4.29861 25.4442 4.22942 25.2772C4.16022 25.1103 4.12461 24.9314 4.12461 24.7507C4.12461 24.57 4.16022 24.3911 4.22942 24.2241C4.29861 24.0572 4.40003 23.9056 4.52788 23.7779L7.44425 20.8615C7.7021 20.6037 8.05177 20.4589 8.41638 20.4589C8.78098 20.4589 9.13065 20.6037 9.3885 20.8615ZM20.625 4.125C20.9618 4.12504 21.2868 4.24869 21.5385 4.47248C21.7902 4.69628 21.951 5.00465 21.9904 5.33912L22 5.5V10.0884C22.7441 9.73604 23.5662 9.58051 24.3877 9.63667C25.2091 9.69283 26.0024 9.9588 26.6917 10.4091C27.3809 10.8595 27.9431 11.4791 28.3245 12.2088C28.7059 12.9385 28.8937 13.7538 28.8699 14.5768C28.8462 15.3998 28.6116 16.203 28.1888 16.9095C27.766 17.6159 27.169 18.2021 26.4549 18.6119C25.7407 19.0218 24.9334 19.2415 24.1101 19.2502C23.2868 19.2589 22.4751 19.0562 21.7525 18.6615C21.5933 18.8908 21.3681 19.0661 21.1068 19.1642C20.8455 19.2622 20.5605 19.2784 20.2898 19.2104C20.0191 19.1425 19.7755 18.9937 19.5915 18.7839C19.4074 18.574 19.2917 18.3131 19.2596 18.0359L19.25 17.875V5.5C19.25 5.13533 19.3949 4.78559 19.6527 4.52773C19.9106 4.26987 20.2603 4.125 20.625 4.125ZM11 4.125C11.4441 4.12491 11.8794 4.24915 12.2565 4.48365C12.6337 4.71815 12.9376 5.05355 13.134 5.45187L13.2179 5.643L17.7815 17.3772C17.9058 17.7036 17.9013 18.065 17.7688 18.3881C17.6364 18.7113 17.386 18.9719 17.0684 19.1171C16.7508 19.2623 16.3899 19.2813 16.0588 19.1701C15.7278 19.0589 15.4514 18.826 15.2859 18.5185L15.2185 18.3727L13.9549 15.125H8.04513L6.7815 18.3727C6.65418 18.6993 6.40698 18.9649 6.09041 19.1153C5.77384 19.2656 5.41179 19.2895 5.07824 19.1818C4.7447 19.0742 4.46483 18.8433 4.29584 18.5363C4.12684 18.2292 4.08147 17.8692 4.169 17.5299L4.2185 17.3772L8.78213 5.643C8.95568 5.19588 9.26034 4.81166 9.65614 4.54076C10.0519 4.26986 10.5204 4.12494 11 4.125ZM24.0625 12.375C23.5155 12.375 22.9909 12.5923 22.6041 12.9791C22.2173 13.3659 22 13.8905 22 14.4375C22 14.9845 22.2173 15.5091 22.6041 15.8959C22.9909 16.2827 23.5155 16.5 24.0625 16.5C24.6095 16.5 25.1341 16.2827 25.5209 15.8959C25.9077 15.5091 26.125 14.9845 26.125 14.4375C26.125 13.8905 25.9077 13.3659 25.5209 12.9791C25.1341 12.5923 24.6095 12.375 24.0625 12.375ZM11 7.52537L9.11488 12.375H12.8865L11 7.52537Z" fill="#1C54A8"/>
</svg>
