<svg width="28" height="25" viewBox="0 0 28 25" fill="none" xmlns="http://www.w3.org/2000/svg">
<path d="M15.1353 4.27632C14.7303 4.27632 14.3906 4.11842 14.1162 3.80263C13.8417 3.48684 13.705 3.09649 13.7059 2.63158C13.7059 2.16557 13.8431 1.77467 14.1176 1.45888C14.392 1.14309 14.7313 0.985745 15.1353 0.986842H26.5706C26.9756 0.986842 27.3153 1.14474 27.5898 1.46053C27.8642 1.77632 28.0009 2.16667 28 2.63158C28 3.09759 27.8628 3.48849 27.5883 3.80428C27.3139 4.12007 26.9746 4.27741 26.5706 4.27632H15.1353ZM15.1353 14.1447C14.7303 14.1447 14.3906 13.9868 14.1162 13.6711C13.8417 13.3553 13.705 12.9649 13.7059 12.5C13.7059 12.034 13.8431 11.6431 14.1176 11.3273C14.392 11.0115 14.7313 10.8542 15.1353 10.8553H26.5706C26.9756 10.8553 27.3153 11.0132 27.5898 11.3289C27.8642 11.6447 28.0009 12.0351 28 12.5C28 12.966 27.8628 13.3569 27.5883 13.6727C27.3139 13.9885 26.9746 14.1458 26.5706 14.1447H15.1353ZM15.1353 24.0132C14.7303 24.0132 14.3906 23.8553 14.1162 23.5395C13.8417 23.2237 13.705 22.8333 13.7059 22.3684C13.7059 21.9024 13.8431 21.5115 14.1176 21.1957C14.392 20.8799 14.7313 20.7226 15.1353 20.7237H26.5706C26.9756 20.7237 27.3153 20.8816 27.5898 21.1974C27.8642 21.5132 28.0009 21.9035 28 22.3684C28 22.8344 27.8628 23.2253 27.5883 23.5411C27.3139 23.8569 26.9746 24.0143 26.5706 24.0132H15.1353ZM4.1289 24.5066L0.412439 20.2303C0.150381 19.9287 0.0131575 19.5515 0.00076933 19.0987C-0.0116189 18.6458 0.125604 18.2555 0.412439 17.9276C0.674497 17.6261 1.00231 17.4682 1.39587 17.4539C1.78943 17.4397 2.12868 17.5839 2.41361 17.8865L3.70007 19.3257V5.67434L2.41361 7.11349C2.15155 7.41502 1.82374 7.56579 1.43018 7.56579C1.03661 7.56579 0.697367 7.40132 0.412439 7.07237C0.150381 6.77083 0.0193516 6.38706 0.0193516 5.92105C0.0193516 5.45504 0.150381 5.07127 0.412439 4.76974L4.1289 0.493421C4.41478 0.164473 4.74831 0 5.12948 0C5.51066 0 5.84419 0.164473 6.13007 0.493421L9.84653 4.76974C10.1086 5.07127 10.2458 5.44846 10.2582 5.90132C10.2706 6.35417 10.1334 6.74452 9.84653 7.07237C9.58447 7.3739 9.25666 7.5318 8.86309 7.54605C8.46953 7.56031 8.13028 7.41612 7.84536 7.11349L6.55889 5.67434V19.3257L7.84536 17.8865C8.10741 17.585 8.43522 17.4342 8.82879 17.4342C9.22235 17.4342 9.5616 17.5987 9.84653 17.9276C10.1086 18.2292 10.2396 18.6129 10.2396 19.0789C10.2396 19.545 10.1086 19.9287 9.84653 20.2303L6.13007 24.5066C5.84419 24.8355 5.51066 25 5.12948 25C4.74831 25 4.41478 24.8355 4.1289 24.5066Z" fill="#1C54A8"/>
</svg>
