<svg width="31" height="5" viewBox="0 0 31 5" fill="none" xmlns="http://www.w3.org/2000/svg">
<g filter="url(#filter0_b_7_16)">
<path d="M2.21429 0H28.7857C29.373 0 29.9362 0.263392 30.3515 0.732234C30.7667 1.20107 31 1.83696 31 2.5C31 3.16304 30.7667 3.79893 30.3515 4.26777C29.9362 4.73661 29.373 5 28.7857 5H2.21429C1.62702 5 1.06381 4.73661 0.648548 4.26777C0.23329 3.79893 1.90735e-06 3.16304 1.90735e-06 2.5C1.90735e-06 1.83696 0.23329 1.20107 0.648548 0.732234C1.06381 0.263392 1.62702 0 2.21429 0Z" fill="white"/>
</g>
<defs>
<filter id="filter0_b_7_16" x="-4" y="-4" width="39" height="13" filterUnits="userSpaceOnUse" color-interpolation-filters="sRGB">
<feFlood flood-opacity="0" result="BackgroundImageFix"/>
<feGaussianBlur in="BackgroundImageFix" stdDeviation="2"/>
<feComposite in2="SourceAlpha" operator="in" result="effect1_backgroundBlur_7_16"/>
<feBlend mode="normal" in="SourceGraphic" in2="effect1_backgroundBlur_7_16" result="shape"/>
</filter>
</defs>
</svg>
