<svg width="31" height="31" viewBox="0 0 31 31" fill="none" xmlns="http://www.w3.org/2000/svg">
<g filter="url(#filter0_b_24_49)">
<path d="M28.7857 17.7143H17.7143V28.7857C17.7143 29.373 17.481 29.9362 17.0657 30.3515C16.6505 30.7667 16.0873 31 15.5 31C14.9127 31 14.3495 30.7667 13.9343 30.3515C13.519 29.9362 13.2857 29.373 13.2857 28.7857V17.7143H2.21429C1.62702 17.7143 1.06381 17.481 0.64855 17.0657C0.233291 16.6505 0 16.0873 0 15.5C0 14.9127 0.233291 14.3495 0.64855 13.9343C1.06381 13.519 1.62702 13.2857 2.21429 13.2857H13.2857V2.21429C13.2857 1.62702 13.519 1.06381 13.9343 0.648549C14.3495 0.23329 14.9127 0 15.5 0C16.0873 0 16.6505 0.23329 17.0657 0.648549C17.481 1.06381 17.7143 1.62702 17.7143 2.21429V13.2857H28.7857C29.373 13.2857 29.9362 13.519 30.3515 13.9343C30.7667 14.3495 31 14.9127 31 15.5C31 16.0873 30.7667 16.6505 30.3515 17.0657C29.9362 17.481 29.373 17.7143 28.7857 17.7143Z" fill="white"/>
</g>
<defs>
<filter id="filter0_b_24_49" x="-4" y="-4" width="39" height="39" filterUnits="userSpaceOnUse" color-interpolation-filters="sRGB">
<feFlood flood-opacity="0" result="BackgroundImageFix"/>
<feGaussianBlur in="BackgroundImageFix" stdDeviation="2"/>
<feComposite in2="SourceAlpha" operator="in" result="effect1_backgroundBlur_24_49"/>
<feBlend mode="normal" in="SourceGraphic" in2="effect1_backgroundBlur_24_49" result="shape"/>
</filter>
</defs>
</svg>
