<svg width="37" height="37" viewBox="0 0 37 37" fill="none" xmlns="http://www.w3.org/2000/svg">
<path d="M26.2083 33.9167V30.8333H30.8333V26.2083H33.9167V31.6042C33.9167 32.2208 33.6083 32.6833 33.1458 33.1458C32.6833 33.6083 32.0667 33.9167 31.6042 33.9167H26.2083ZM10.7917 33.9167H5.39584C4.77918 33.9167 4.31668 33.6083 3.85418 33.1458C3.39168 32.6833 3.08334 32.0667 3.08334 31.6042V26.2083H6.16668V30.8333H10.7917V33.9167ZM26.2083 3.08334H31.6042C32.2208 3.08334 32.6833 3.39168 33.1458 3.85418C33.6083 4.31668 33.9167 4.77918 33.9167 5.39584V10.7917H30.8333V6.16668H26.2083V3.08334ZM10.7917 3.08334V6.16668H6.16668V10.7917H3.08334V5.39584C3.08334 4.77918 3.39168 4.31668 3.85418 3.85418C4.31668 3.39168 4.77918 3.08334 5.39584 3.08334H10.7917ZM29.2917 16.9583H7.70834V20.0417H29.2917V16.9583Z" fill="#1C54A8"/>
</svg>
