<svg width="83" height="63" viewBox="0 0 83 63" fill="none" xmlns="http://www.w3.org/2000/svg">
<g filter="url(#filter0_d_27_7)">
<rect x="10" y="6" width="63" height="43" rx="21.5" fill="#327DEF"/>
</g>
<path d="M43.5833 26.3667L47.5417 30.325C47.8319 30.6153 47.9771 30.9847 47.9771 31.4333C47.9771 31.8819 47.8319 32.2514 47.5417 32.5417C47.2514 32.8319 46.8819 32.9771 46.4333 32.9771C45.9847 32.9771 45.6153 32.8319 45.325 32.5417L40.8917 28.1083C40.7333 27.95 40.6146 27.7716 40.5354 27.5732C40.4563 27.3758 40.4167 27.1715 40.4167 26.9604V20.6667C40.4167 20.2181 40.5687 19.8418 40.8727 19.5378C41.1756 19.2348 41.5514 19.0833 42 19.0833C42.4486 19.0833 42.8249 19.2348 43.1289 19.5378C43.4319 19.8418 43.5833 20.2181 43.5833 20.6667V26.3667ZM42 41.25C38.8069 41.25 35.9438 40.3063 33.4104 38.419C30.8771 36.5327 29.175 34.0722 28.3042 31.0375C28.1722 30.5625 28.2187 30.1139 28.4435 29.6917C28.6673 29.2694 29.0167 29.0056 29.4917 28.9C29.9403 28.7944 30.343 28.8931 30.6997 29.1961C31.0555 29.5001 31.2993 29.8764 31.4312 30.325C32.1174 32.6472 33.4437 34.5208 35.4102 35.9458C37.3756 37.3708 39.5722 38.0833 42 38.0833C45.0875 38.0833 47.7063 37.0077 49.8565 34.8565C52.0077 32.7063 53.0833 30.0875 53.0833 27C53.0833 23.9125 52.0077 21.2931 49.8565 19.1419C47.7063 16.9918 45.0875 15.9167 42 15.9167C40.1792 15.9167 38.4771 16.3389 36.8937 17.1833C35.3104 18.0278 33.9778 19.1889 32.8958 20.6667H35.6667C36.1153 20.6667 36.4916 20.8181 36.7956 21.1211C37.0985 21.4251 37.25 21.8014 37.25 22.25C37.25 22.6986 37.0985 23.0744 36.7956 23.3773C36.4916 23.6813 36.1153 23.8333 35.6667 23.8333H29.3333C28.8847 23.8333 28.5089 23.6813 28.206 23.3773C27.902 23.0744 27.75 22.6986 27.75 22.25V15.9167C27.75 15.4681 27.902 15.0918 28.206 14.7878C28.5089 14.4848 28.8847 14.3333 29.3333 14.3333C29.7819 14.3333 30.1582 14.4848 30.4622 14.7878C30.7652 15.0918 30.9167 15.4681 30.9167 15.9167V18.0542C32.2625 16.3653 33.9055 15.059 35.8456 14.1354C37.7846 13.2118 39.8361 12.75 42 12.75C43.9792 12.75 45.8333 13.1258 47.5623 13.8773C49.2902 14.6299 50.7944 15.6459 52.0748 16.9253C53.3541 18.2056 54.3701 19.7098 55.1227 21.4378C55.8742 23.1668 56.25 25.0208 56.25 27C56.25 28.9792 55.8742 30.8327 55.1227 32.5607C54.3701 34.2897 53.3541 35.7938 52.0748 37.0732C50.7944 38.3536 49.2902 39.3701 47.5623 40.1227C45.8333 40.8742 43.9792 41.25 42 41.25Z" fill="white"/>
<defs>
<filter id="filter0_d_27_7" x="0" y="0" width="83" height="63" filterUnits="userSpaceOnUse" color-interpolation-filters="sRGB">
<feFlood flood-opacity="0" result="BackgroundImageFix"/>
<feColorMatrix in="SourceAlpha" type="matrix" values="0 0 0 0 0 0 0 0 0 0 0 0 0 0 0 0 0 0 127 0" result="hardAlpha"/>
<feOffset dy="4"/>
<feGaussianBlur stdDeviation="5"/>
<feComposite in2="hardAlpha" operator="out"/>
<feColorMatrix type="matrix" values="0 0 0 0 0 0 0 0 0 0 0 0 0 0 0 0 0 0 0.2 0"/>
<feBlend mode="normal" in2="BackgroundImageFix" result="effect1_dropShadow_27_7"/>
<feBlend mode="normal" in="SourceGraphic" in2="effect1_dropShadow_27_7" result="shape"/>
</filter>
</defs>
</svg>
