<svg width="26" height="28" viewBox="0 0 26 28" fill="none" xmlns="http://www.w3.org/2000/svg">
<path d="M13 28C5.837 28 0 21.714 0 14C0 6.286 5.837 0 13 0C20.163 0 26 5.656 26 12.6C26 17.234 22.503 21 18.2 21H15.899C15.535 21 15.249 21.308 15.249 21.7C15.249 21.868 15.314 22.022 15.418 22.162C15.951 22.82 16.25 23.646 16.25 24.5C16.25 25.4283 15.9076 26.3185 15.2981 26.9749C14.6886 27.6313 13.862 28 13 28ZM13 2.8C7.267 2.8 2.6 7.826 2.6 14C2.6 20.174 7.267 25.2 13 25.2C13.364 25.2 13.65 24.892 13.65 24.5C13.646 24.3184 13.5814 24.1445 13.468 24.01C12.935 23.366 12.649 22.54 12.649 21.7C12.649 20.7717 12.9914 19.8815 13.6009 19.2251C14.2104 18.5687 15.037 18.2 15.899 18.2H18.2C21.073 18.2 23.4 15.694 23.4 12.6C23.4 7.196 18.733 2.8 13 2.8Z" fill="#1C54A8"/>
<path d="M5.85 15.4C6.92695 15.4 7.8 14.4598 7.8 13.3C7.8 12.1402 6.92695 11.2 5.85 11.2C4.77304 11.2 3.9 12.1402 3.9 13.3C3.9 14.4598 4.77304 15.4 5.85 15.4Z" fill="#1C54A8"/>
<path d="M9.75 9.80001C10.827 9.80001 11.7 8.8598 11.7 7.70001C11.7 6.54021 10.827 5.60001 9.75 5.60001C8.67304 5.60001 7.8 6.54021 7.8 7.70001C7.8 8.8598 8.67304 9.80001 9.75 9.80001Z" fill="#1C54A8"/>
<path d="M16.25 9.80001C17.327 9.80001 18.2 8.8598 18.2 7.70001C18.2 6.54021 17.327 5.60001 16.25 5.60001C15.173 5.60001 14.3 6.54021 14.3 7.70001C14.3 8.8598 15.173 9.80001 16.25 9.80001Z" fill="#1C54A8"/>
<path d="M20.15 15.4C21.227 15.4 22.1 14.4598 22.1 13.3C22.1 12.1402 21.227 11.2 20.15 11.2C19.073 11.2 18.2 12.1402 18.2 13.3C18.2 14.4598 19.073 15.4 20.15 15.4Z" fill="#1C54A8"/>
</svg>
