<svg width="22" height="27" viewBox="0 0 22 27" fill="none" xmlns="http://www.w3.org/2000/svg">
<path d="M11.8562 21.1738C11.9785 21.3175 12.0756 21.4883 12.1419 21.6763C12.2081 21.8643 12.2422 22.0659 12.2422 22.2695C12.2422 22.4731 12.2081 22.6747 12.1419 22.8627C12.0756 23.0507 11.9785 23.2215 11.8562 23.3652L11.2065 24.1309C9.97537 25.5819 8.30564 26.397 6.5646 26.397C4.82356 26.397 3.15383 25.5819 1.92273 24.1309C0.691626 22.68 0 20.7121 0 18.6601C0 16.6082 0.691626 14.6403 1.92273 13.1893L4.56085 10.0814C5.74373 8.68387 7.33523 7.87225 9.00938 7.81282C10.6835 7.75338 12.3136 8.45063 13.5657 9.76173C13.695 9.89715 13.8003 10.0613 13.8758 10.2447C13.9513 10.4281 13.9953 10.6272 14.0055 10.8307C14.0156 11.0342 13.9917 11.2381 13.935 11.4307C13.8783 11.6232 13.79 11.8008 13.6751 11.9531C13.5602 12.1055 13.4209 12.2297 13.2653 12.3186C13.1097 12.4075 12.9407 12.4595 12.768 12.4714C12.5954 12.4834 12.4224 12.4552 12.259 12.3884C12.0956 12.3216 11.945 12.2175 11.8157 12.082C11.0649 11.2961 10.0876 10.878 9.08385 10.9133C8.0801 10.9485 7.12569 11.4344 6.41585 12.2715L3.77992 15.3756C3.04137 16.246 2.62646 17.4266 2.62646 18.6575C2.62646 19.8885 3.04137 21.0691 3.77992 21.9395C4.51846 22.8099 5.52014 23.2989 6.5646 23.2989C7.60906 23.2989 8.61074 22.8099 9.34929 21.9395L9.99898 21.1738C10.1209 21.03 10.2656 20.9159 10.425 20.838C10.5843 20.7602 10.7551 20.7201 10.9276 20.7201C11.1001 20.7201 11.2708 20.7602 11.4302 20.838C11.5895 20.9159 11.7343 21.03 11.8562 21.1738ZM19.9587 2.86911C18.7266 1.4204 17.0572 0.606812 15.3168 0.606812C13.5764 0.606812 11.907 1.4204 10.6749 2.86911L10.0252 3.63482C9.77866 3.92541 9.64014 4.31955 9.64014 4.73052C9.64014 5.14149 9.77866 5.53562 10.0252 5.82622C10.2718 6.11682 10.6062 6.28008 10.9549 6.28008C11.3036 6.28008 11.638 6.11682 11.8846 5.82622L12.5343 5.06052C13.2728 4.19009 14.2745 3.70109 15.319 3.70109C16.3634 3.70109 17.3651 4.19009 18.1037 5.06052C18.8422 5.93095 19.2571 7.1115 19.2571 8.34247C19.2571 9.57344 18.8422 10.754 18.1037 11.6244L15.4666 14.7336C14.7562 15.5705 13.8012 16.0556 12.7972 16.0899C11.7932 16.1242 10.816 15.7049 10.0657 14.918C9.93643 14.7826 9.78579 14.6785 9.62239 14.6116C9.45898 14.5448 9.28602 14.5166 9.11336 14.5286C8.9407 14.5405 8.77173 14.5925 8.6161 14.6814C8.46047 14.7703 8.32123 14.8945 8.20632 15.0469C8.09141 15.1992 8.0031 15.3768 7.94641 15.5694C7.88971 15.7619 7.86576 15.9658 7.87592 16.1693C7.88608 16.3728 7.93014 16.5719 8.0056 16.7553C8.08105 16.9388 8.18643 17.1029 8.3157 17.2383C9.56693 18.5491 11.1959 19.2468 12.8693 19.1885C14.5426 19.1303 16.1338 18.3206 17.3173 16.9251L19.9554 13.8171C21.186 12.3653 21.8776 10.3974 21.8782 8.3452C21.8788 6.29306 21.1884 4.32449 19.9587 2.87169V2.86911Z" fill="#1C54A8"/>
</svg>
