<svg width="17" height="27" viewBox="0 0 17 27" fill="none" xmlns="http://www.w3.org/2000/svg">
<path d="M17 1.44444C17 1.06135 16.8507 0.693954 16.5851 0.423068C16.3194 0.152182 15.9591 0 15.5833 0C15.2076 0 14.8473 0.152182 14.5816 0.423068C14.3159 0.693954 14.1667 1.06135 14.1667 1.44444V11.5556C14.1667 13.0879 13.5696 14.5575 12.5069 15.6411C11.4442 16.7246 10.0029 17.3333 8.5 17.3333C6.99711 17.3333 5.55577 16.7246 4.49306 15.6411C3.43036 14.5575 2.83333 13.0879 2.83333 11.5556V1.44444C2.83333 1.06135 2.68408 0.693954 2.4184 0.423068C2.15272 0.152182 1.79239 0 1.41667 0C1.04094 0 0.680609 0.152182 0.414932 0.423068C0.149256 0.693954 0 1.06135 0 1.44444V11.5556C0 13.8541 0.895533 16.0585 2.48959 17.6838C4.08365 19.3091 6.24566 20.2222 8.5 20.2222C10.7543 20.2222 12.9163 19.3091 14.5104 17.6838C16.1045 16.0585 17 13.8541 17 11.5556V1.44444ZM1.41667 23.1111C1.04094 23.1111 0.680609 23.2633 0.414932 23.5342C0.149256 23.8051 0 24.1725 0 24.5556C0 24.9386 0.149256 25.306 0.414932 25.5769C0.680609 25.8478 1.04094 26 1.41667 26H15.5833C15.9591 26 16.3194 25.8478 16.5851 25.5769C16.8507 25.306 17 24.9386 17 24.5556C17 24.1725 16.8507 23.8051 16.5851 23.5342C16.3194 23.2633 15.9591 23.1111 15.5833 23.1111H1.41667Z" fill="#1C54A8"/>
</svg>